<svg xmlns="http://www.w3.org/2000/svg" width="90mm" height="50mm" viewBox="0 0 900 500" role="img">
  <title>Concept 10 back</title>
  <defs>
    <style>
    .sans { font-family: Arial, Helvetica, sans-serif; }
    .mono { font-family: "Courier New", Courier, monospace; }
    .heavy { font-weight: 700; }
  </style>
  </defs>
  <rect width="900" height="500" fill="#fff"/>
  <line x1="64" y1="74" x2="836" y2="74" stroke="#111" stroke-width="2"/>
  <line x1="64" y1="426" x2="836" y2="426" stroke="#111" stroke-width="2"/>
  <text class="sans heavy" x="450" y="250" text-anchor="middle" font-size="72" fill="#111">UNIONJAM</text>
  <text class="mono" x="450" y="304" text-anchor="middle" font-size="22" letter-spacing="8" fill="#111">INC.</text>
  <g fill="#111">
    <rect x="80" y="108" width="22" height="22"/>
    <rect x="110" y="108" width="22" height="22"/>
    <rect x="140" y="108" width="22" height="22"/>
    <rect x="80" y="138" width="22" height="22"/>
    <rect x="140" y="138" width="22" height="22"/>
    <rect x="80" y="168" width="22" height="22"/>
    <rect x="110" y="168" width="22" height="22"/>
    <rect x="140" y="168" width="22" height="22"/>
  </g>
  <g fill="#111">
    <rect x="736" y="326" width="22" height="22"/>
    <rect x="766" y="326" width="22" height="22"/>
    <rect x="796" y="326" width="22" height="22"/>
    <rect x="736" y="356" width="22" height="22"/>
    <rect x="796" y="356" width="22" height="22"/>
    <rect x="736" y="386" width="22" height="22"/>
    <rect x="766" y="386" width="22" height="22"/>
    <rect x="796" y="386" width="22" height="22"/>
  </g>
</svg>
