<svg xmlns="http://www.w3.org/2000/svg" width="90mm" height="50mm" viewBox="0 0 900 500" role="img">
  <title>Concept 04 back</title>
  <defs>
    <style>
    .sans { font-family: Arial, Helvetica, sans-serif; }
    .mono { font-family: "Courier New", Courier, monospace; }
    .heavy { font-weight: 700; }
  </style>
  </defs>
  <rect width="900" height="500" fill="#fff"/>
  <g fill="#111">
    <rect x="84" y="76" width="20" height="20"/>
    <rect x="136" y="76" width="20" height="20"/>
    <rect x="188" y="76" width="20" height="20"/>
    <rect x="240" y="76" width="20" height="20"/>
    <rect x="292" y="76" width="20" height="20"/>
    <rect x="344" y="76" width="20" height="20"/>
    <rect x="396" y="76" width="20" height="20"/>
    <rect x="448" y="76" width="20" height="20"/>
    <rect x="500" y="76" width="20" height="20"/>
    <rect x="552" y="76" width="20" height="20"/>
    <rect x="604" y="76" width="20" height="20"/>
    <rect x="656" y="76" width="20" height="20"/>
    <rect x="708" y="76" width="20" height="20"/>
    <rect x="760" y="76" width="20" height="20"/>
    <rect x="812" y="76" width="20" height="20"/>
    <rect x="84" y="404" width="20" height="20"/>
    <rect x="136" y="404" width="20" height="20"/>
    <rect x="188" y="404" width="20" height="20"/>
    <rect x="240" y="404" width="20" height="20"/>
    <rect x="292" y="404" width="20" height="20"/>
    <rect x="344" y="404" width="20" height="20"/>
    <rect x="396" y="404" width="20" height="20"/>
    <rect x="448" y="404" width="20" height="20"/>
    <rect x="500" y="404" width="20" height="20"/>
    <rect x="552" y="404" width="20" height="20"/>
    <rect x="604" y="404" width="20" height="20"/>
    <rect x="656" y="404" width="20" height="20"/>
    <rect x="708" y="404" width="20" height="20"/>
    <rect x="760" y="404" width="20" height="20"/>
    <rect x="812" y="404" width="20" height="20"/>
  </g>
  <g fill="#111">
    <rect x="348" y="130" width="58" height="58"/>
    <rect x="420" y="130" width="58" height="58"/>
    <rect x="492" y="130" width="58" height="58"/>
    <rect x="348" y="202" width="58" height="58"/>
    <rect x="492" y="202" width="58" height="58"/>
    <rect x="348" y="274" width="58" height="58"/>
    <rect x="420" y="274" width="58" height="58"/>
    <rect x="492" y="274" width="58" height="58"/>
  </g>
  <text class="sans heavy" x="450" y="366" text-anchor="middle" font-size="58" fill="#111">UNIONJAM</text>
  <text class="mono" x="450" y="406" text-anchor="middle" font-size="20" letter-spacing="6" fill="#111">INC.</text>
</svg>
