<svg xmlns="http://www.w3.org/2000/svg" width="90mm" height="50mm" viewBox="0 0 900 500" role="img">
  <title>Concept 01 back</title>
  <defs>
    <style>
    .sans { font-family: Arial, Helvetica, sans-serif; }
    .mono { font-family: "Courier New", Courier, monospace; }
    .heavy { font-weight: 700; }
  </style>
  </defs>
  <rect width="900" height="500" fill="#111"/>
  <rect x="32" y="32" width="836" height="436" fill="none" stroke="#fff" stroke-width="3"/>
  <g fill="#fff">
    <rect x="350" y="110" width="52" height="52"/>
    <rect x="414" y="110" width="52" height="52"/>
    <rect x="478" y="110" width="52" height="52"/>
    <rect x="350" y="174" width="52" height="52"/>
    <rect x="478" y="174" width="52" height="52"/>
    <rect x="350" y="238" width="52" height="52"/>
    <rect x="414" y="238" width="52" height="52"/>
    <rect x="478" y="238" width="52" height="52"/>
  </g>
  <text class="sans heavy" x="450" y="347" text-anchor="middle" font-size="62" letter-spacing="1" fill="#fff">UNIONJAM</text>
  <text class="mono" x="450" y="390" text-anchor="middle" font-size="22" letter-spacing="6" fill="#fff">INC.</text>
  <g fill="#fff">
    <rect x="64" y="64" width="12" height="12"/>
    <rect x="88" y="64" width="12" height="12"/>
    <rect x="112" y="64" width="12" height="12"/>
    <rect x="64" y="88" width="12" height="12"/>
    <rect x="824" y="412" width="12" height="12"/>
    <rect x="800" y="412" width="12" height="12"/>
    <rect x="776" y="412" width="12" height="12"/>
    <rect x="824" y="388" width="12" height="12"/>
  </g>
</svg>
