<svg xmlns="http://www.w3.org/2000/svg" width="90mm" height="50mm" viewBox="0 0 900 500" role="img">
  <title>Concept 02 front</title>
  <defs>
    <style>
    .sans { font-family: Arial, Helvetica, sans-serif; }
    .mono { font-family: "Courier New", Courier, monospace; }
    .heavy { font-weight: 700; }
  </style>
  </defs>
  <rect width="900" height="500" fill="#fff"/>
  <rect x="0" y="0" width="230" height="500" fill="#111"/>
  <g fill="#fff">
    <rect x="58" y="74" width="38" height="38"/>
    <rect x="106" y="74" width="38" height="38"/>
    <rect x="154" y="74" width="38" height="38"/>
    <rect x="58" y="122" width="38" height="38"/>
    <rect x="154" y="122" width="38" height="38"/>
    <rect x="58" y="170" width="38" height="38"/>
    <rect x="106" y="170" width="38" height="38"/>
    <rect x="154" y="170" width="38" height="38"/>
  </g>
  <text class="sans heavy" x="64" y="404" font-size="30" fill="#fff">UNION</text>
  <text class="sans heavy" x="64" y="442" font-size="30" fill="#fff">JAM</text>
  <rect x="258" y="54" width="590" height="392" fill="none" stroke="#111" stroke-width="2"/>
  <text class="sans heavy" x="292" y="150" font-size="50" fill="#111">Yang Jin Hwan</text>
  <text class="mono" x="296" y="195" font-size="22" letter-spacing="4" fill="#111">CTO</text>
  <line x1="292" y1="260" x2="808" y2="260" stroke="#111" stroke-width="2"/>
  <text class="mono" x="292" y="320" font-size="24" fill="#111">+82 10 2647 0377</text>
  <text class="mono" x="292" y="360" font-size="22" fill="#111">jin@unionjam.com</text>
  <text class="sans heavy" x="808" y="408" text-anchor="end" font-size="28" fill="#111">UnionJam Inc.</text>
</svg>
