<svg xmlns="http://www.w3.org/2000/svg" width="90mm" height="50mm" viewBox="0 0 900 500" role="img">
  <title>Concept 01 front</title>
  <defs>
    <style>
    .sans { font-family: Arial, Helvetica, sans-serif; }
    .mono { font-family: "Courier New", Courier, monospace; }
    .heavy { font-weight: 700; }
  </style>
  </defs>
  <rect width="900" height="500" fill="#fff"/>
  <rect x="32" y="32" width="836" height="436" fill="none" stroke="#111" stroke-width="3"/>
  <g fill="#111">
    <rect x="64" y="64" width="34" height="34"/>
    <rect x="106" y="64" width="34" height="34"/>
    <rect x="148" y="64" width="34" height="34"/>
    <rect x="64" y="106" width="34" height="34"/>
    <rect x="148" y="106" width="34" height="34"/>
    <rect x="64" y="148" width="34" height="34"/>
    <rect x="106" y="148" width="34" height="34"/>
    <rect x="148" y="148" width="34" height="34"/>
  </g>
  <g fill="#111">
    <rect x="772" y="64" width="16" height="16"/>
    <rect x="796" y="64" width="16" height="16"/>
    <rect x="820" y="64" width="16" height="16"/>
    <rect x="772" y="88" width="16" height="16"/>
    <rect x="820" y="88" width="16" height="16"/>
    <rect x="772" y="112" width="16" height="16"/>
    <rect x="796" y="112" width="16" height="16"/>
    <rect x="820" y="112" width="16" height="16"/>
  </g>
  <text class="sans heavy" x="214" y="112" font-size="38" fill="#111">UnionJam Inc.</text>
  <text class="sans heavy" x="64" y="258" font-size="56" fill="#111">Yang Jin Hwan</text>
  <text class="mono" x="67" y="300" font-size="18" letter-spacing="3" fill="#111">CTO</text>
  <line x1="64" y1="386" x2="836" y2="386" stroke="#111" stroke-width="3"/>
  <text class="mono" x="64" y="425" font-size="24" letter-spacing="1" fill="#111">+82 10 2647 0377</text>
  <text class="mono" x="64" y="457" font-size="20" letter-spacing="1" fill="#111">jin@unionjam.com</text>
  <text class="mono" x="836" y="457" text-anchor="end" font-size="14" letter-spacing="2" fill="#111">UNIONJAM INC.</text>
</svg>
