<svg xmlns="http://www.w3.org/2000/svg" width="90mm" height="50mm" viewBox="0 0 900 500" role="img">
  <title>Concept 09 back</title>
  <defs>
    <style>
    .sans { font-family: Arial, Helvetica, sans-serif; }
    .mono { font-family: "Courier New", Courier, monospace; }
    .heavy { font-weight: 700; }
  </style>
  </defs>
  <rect width="900" height="500" fill="#111"/>
  <g fill="#fff" opacity="0.14">
    <rect x="58" y="50" width="30" height="30"/>
    <rect x="116" y="50" width="30" height="30"/>
    <rect x="174" y="50" width="30" height="30"/>
    <rect x="232" y="50" width="30" height="30"/>
    <rect x="290" y="50" width="30" height="30"/>
    <rect x="348" y="50" width="30" height="30"/>
    <rect x="406" y="50" width="30" height="30"/>
    <rect x="464" y="50" width="30" height="30"/>
    <rect x="522" y="50" width="30" height="30"/>
    <rect x="580" y="50" width="30" height="30"/>
    <rect x="638" y="50" width="30" height="30"/>
    <rect x="696" y="50" width="30" height="30"/>
    <rect x="754" y="50" width="30" height="30"/>
    <rect x="812" y="50" width="30" height="30"/>
    <rect x="58" y="102" width="30" height="30"/>
    <rect x="116" y="102" width="30" height="30"/>
    <rect x="174" y="102" width="30" height="30"/>
    <rect x="232" y="102" width="30" height="30"/>
    <rect x="290" y="102" width="30" height="30"/>
    <rect x="348" y="102" width="30" height="30"/>
    <rect x="406" y="102" width="30" height="30"/>
    <rect x="464" y="102" width="30" height="30"/>
    <rect x="522" y="102" width="30" height="30"/>
    <rect x="580" y="102" width="30" height="30"/>
    <rect x="638" y="102" width="30" height="30"/>
    <rect x="696" y="102" width="30" height="30"/>
    <rect x="754" y="102" width="30" height="30"/>
    <rect x="812" y="102" width="30" height="30"/>
    <rect x="58" y="154" width="30" height="30"/>
    <rect x="116" y="154" width="30" height="30"/>
    <rect x="174" y="154" width="30" height="30"/>
    <rect x="232" y="154" width="30" height="30"/>
    <rect x="290" y="154" width="30" height="30"/>
    <rect x="348" y="154" width="30" height="30"/>
    <rect x="406" y="154" width="30" height="30"/>
    <rect x="464" y="154" width="30" height="30"/>
    <rect x="522" y="154" width="30" height="30"/>
    <rect x="580" y="154" width="30" height="30"/>
    <rect x="638" y="154" width="30" height="30"/>
    <rect x="696" y="154" width="30" height="30"/>
    <rect x="754" y="154" width="30" height="30"/>
    <rect x="812" y="154" width="30" height="30"/>
    <rect x="58" y="206" width="30" height="30"/>
    <rect x="116" y="206" width="30" height="30"/>
    <rect x="174" y="206" width="30" height="30"/>
    <rect x="232" y="206" width="30" height="30"/>
    <rect x="290" y="206" width="30" height="30"/>
    <rect x="348" y="206" width="30" height="30"/>
    <rect x="406" y="206" width="30" height="30"/>
    <rect x="464" y="206" width="30" height="30"/>
    <rect x="522" y="206" width="30" height="30"/>
    <rect x="580" y="206" width="30" height="30"/>
    <rect x="638" y="206" width="30" height="30"/>
    <rect x="696" y="206" width="30" height="30"/>
    <rect x="754" y="206" width="30" height="30"/>
    <rect x="812" y="206" width="30" height="30"/>
    <rect x="58" y="258" width="30" height="30"/>
    <rect x="116" y="258" width="30" height="30"/>
    <rect x="174" y="258" width="30" height="30"/>
    <rect x="232" y="258" width="30" height="30"/>
    <rect x="290" y="258" width="30" height="30"/>
    <rect x="348" y="258" width="30" height="30"/>
    <rect x="406" y="258" width="30" height="30"/>
    <rect x="464" y="258" width="30" height="30"/>
    <rect x="522" y="258" width="30" height="30"/>
    <rect x="580" y="258" width="30" height="30"/>
    <rect x="638" y="258" width="30" height="30"/>
    <rect x="696" y="258" width="30" height="30"/>
    <rect x="754" y="258" width="30" height="30"/>
    <rect x="812" y="258" width="30" height="30"/>
    <rect x="58" y="310" width="30" height="30"/>
    <rect x="116" y="310" width="30" height="30"/>
    <rect x="174" y="310" width="30" height="30"/>
    <rect x="232" y="310" width="30" height="30"/>
    <rect x="290" y="310" width="30" height="30"/>
    <rect x="348" y="310" width="30" height="30"/>
    <rect x="406" y="310" width="30" height="30"/>
    <rect x="464" y="310" width="30" height="30"/>
    <rect x="522" y="310" width="30" height="30"/>
    <rect x="580" y="310" width="30" height="30"/>
    <rect x="638" y="310" width="30" height="30"/>
    <rect x="696" y="310" width="30" height="30"/>
    <rect x="754" y="310" width="30" height="30"/>
    <rect x="812" y="310" width="30" height="30"/>
    <rect x="58" y="362" width="30" height="30"/>
    <rect x="116" y="362" width="30" height="30"/>
    <rect x="174" y="362" width="30" height="30"/>
    <rect x="232" y="362" width="30" height="30"/>
    <rect x="290" y="362" width="30" height="30"/>
    <rect x="348" y="362" width="30" height="30"/>
    <rect x="406" y="362" width="30" height="30"/>
    <rect x="464" y="362" width="30" height="30"/>
    <rect x="522" y="362" width="30" height="30"/>
    <rect x="580" y="362" width="30" height="30"/>
    <rect x="638" y="362" width="30" height="30"/>
    <rect x="696" y="362" width="30" height="30"/>
    <rect x="754" y="362" width="30" height="30"/>
    <rect x="812" y="362" width="30" height="30"/>
    <rect x="58" y="414" width="30" height="30"/>
    <rect x="116" y="414" width="30" height="30"/>
    <rect x="174" y="414" width="30" height="30"/>
    <rect x="232" y="414" width="30" height="30"/>
    <rect x="290" y="414" width="30" height="30"/>
    <rect x="348" y="414" width="30" height="30"/>
    <rect x="406" y="414" width="30" height="30"/>
    <rect x="464" y="414" width="30" height="30"/>
    <rect x="522" y="414" width="30" height="30"/>
    <rect x="580" y="414" width="30" height="30"/>
    <rect x="638" y="414" width="30" height="30"/>
    <rect x="696" y="414" width="30" height="30"/>
    <rect x="754" y="414" width="30" height="30"/>
    <rect x="812" y="414" width="30" height="30"/>
  </g>
  <rect x="252" y="94" width="396" height="312" fill="#111" stroke="#fff" stroke-width="2"/>
  <g fill="#fff">
    <rect x="360" y="130" width="46" height="46"/>
    <rect x="418" y="130" width="46" height="46"/>
    <rect x="476" y="130" width="46" height="46"/>
    <rect x="360" y="188" width="46" height="46"/>
    <rect x="476" y="188" width="46" height="46"/>
    <rect x="360" y="246" width="46" height="46"/>
    <rect x="418" y="246" width="46" height="46"/>
    <rect x="476" y="246" width="46" height="46"/>
  </g>
  <text class="sans heavy" x="450" y="334" text-anchor="middle" font-size="52" fill="#fff">UNIONJAM</text>
  <text class="mono" x="450" y="374" text-anchor="middle" font-size="20" letter-spacing="6" fill="#fff">INC.</text>
</svg>
