<svg xmlns="http://www.w3.org/2000/svg" width="90mm" height="50mm" viewBox="0 0 900 500" role="img">
  <title>Concept 09 front</title>
  <defs>
    <style>
    .sans { font-family: Arial, Helvetica, sans-serif; }
    .mono { font-family: "Courier New", Courier, monospace; }
    .heavy { font-weight: 700; }
  </style>
  </defs>
  <rect width="900" height="500" fill="#fff"/>
  <g fill="#111" opacity="0.08">
    <rect x="32" y="28" width="32" height="32"/>
    <rect x="90" y="28" width="32" height="32"/>
    <rect x="148" y="28" width="32" height="32"/>
    <rect x="206" y="28" width="32" height="32"/>
    <rect x="264" y="28" width="32" height="32"/>
    <rect x="322" y="28" width="32" height="32"/>
    <rect x="380" y="28" width="32" height="32"/>
    <rect x="438" y="28" width="32" height="32"/>
    <rect x="496" y="28" width="32" height="32"/>
    <rect x="554" y="28" width="32" height="32"/>
    <rect x="612" y="28" width="32" height="32"/>
    <rect x="670" y="28" width="32" height="32"/>
    <rect x="728" y="28" width="32" height="32"/>
    <rect x="786" y="28" width="32" height="32"/>
    <rect x="844" y="28" width="32" height="32"/>
    <rect x="32" y="80" width="32" height="32"/>
    <rect x="90" y="80" width="32" height="32"/>
    <rect x="148" y="80" width="32" height="32"/>
    <rect x="206" y="80" width="32" height="32"/>
    <rect x="264" y="80" width="32" height="32"/>
    <rect x="322" y="80" width="32" height="32"/>
    <rect x="380" y="80" width="32" height="32"/>
    <rect x="438" y="80" width="32" height="32"/>
    <rect x="496" y="80" width="32" height="32"/>
    <rect x="554" y="80" width="32" height="32"/>
    <rect x="612" y="80" width="32" height="32"/>
    <rect x="670" y="80" width="32" height="32"/>
    <rect x="728" y="80" width="32" height="32"/>
    <rect x="786" y="80" width="32" height="32"/>
    <rect x="844" y="80" width="32" height="32"/>
    <rect x="32" y="132" width="32" height="32"/>
    <rect x="90" y="132" width="32" height="32"/>
    <rect x="148" y="132" width="32" height="32"/>
    <rect x="206" y="132" width="32" height="32"/>
    <rect x="264" y="132" width="32" height="32"/>
    <rect x="322" y="132" width="32" height="32"/>
    <rect x="380" y="132" width="32" height="32"/>
    <rect x="438" y="132" width="32" height="32"/>
    <rect x="496" y="132" width="32" height="32"/>
    <rect x="554" y="132" width="32" height="32"/>
    <rect x="612" y="132" width="32" height="32"/>
    <rect x="670" y="132" width="32" height="32"/>
    <rect x="728" y="132" width="32" height="32"/>
    <rect x="786" y="132" width="32" height="32"/>
    <rect x="844" y="132" width="32" height="32"/>
    <rect x="32" y="184" width="32" height="32"/>
    <rect x="90" y="184" width="32" height="32"/>
    <rect x="148" y="184" width="32" height="32"/>
    <rect x="206" y="184" width="32" height="32"/>
    <rect x="264" y="184" width="32" height="32"/>
    <rect x="322" y="184" width="32" height="32"/>
    <rect x="380" y="184" width="32" height="32"/>
    <rect x="438" y="184" width="32" height="32"/>
    <rect x="496" y="184" width="32" height="32"/>
    <rect x="554" y="184" width="32" height="32"/>
    <rect x="612" y="184" width="32" height="32"/>
    <rect x="670" y="184" width="32" height="32"/>
    <rect x="728" y="184" width="32" height="32"/>
    <rect x="786" y="184" width="32" height="32"/>
    <rect x="844" y="184" width="32" height="32"/>
    <rect x="32" y="236" width="32" height="32"/>
    <rect x="90" y="236" width="32" height="32"/>
    <rect x="148" y="236" width="32" height="32"/>
    <rect x="206" y="236" width="32" height="32"/>
    <rect x="264" y="236" width="32" height="32"/>
    <rect x="322" y="236" width="32" height="32"/>
    <rect x="380" y="236" width="32" height="32"/>
    <rect x="438" y="236" width="32" height="32"/>
    <rect x="496" y="236" width="32" height="32"/>
    <rect x="554" y="236" width="32" height="32"/>
    <rect x="612" y="236" width="32" height="32"/>
    <rect x="670" y="236" width="32" height="32"/>
    <rect x="728" y="236" width="32" height="32"/>
    <rect x="786" y="236" width="32" height="32"/>
    <rect x="844" y="236" width="32" height="32"/>
    <rect x="32" y="288" width="32" height="32"/>
    <rect x="90" y="288" width="32" height="32"/>
    <rect x="148" y="288" width="32" height="32"/>
    <rect x="206" y="288" width="32" height="32"/>
    <rect x="264" y="288" width="32" height="32"/>
    <rect x="322" y="288" width="32" height="32"/>
    <rect x="380" y="288" width="32" height="32"/>
    <rect x="438" y="288" width="32" height="32"/>
    <rect x="496" y="288" width="32" height="32"/>
    <rect x="554" y="288" width="32" height="32"/>
    <rect x="612" y="288" width="32" height="32"/>
    <rect x="670" y="288" width="32" height="32"/>
    <rect x="728" y="288" width="32" height="32"/>
    <rect x="786" y="288" width="32" height="32"/>
    <rect x="844" y="288" width="32" height="32"/>
    <rect x="32" y="340" width="32" height="32"/>
    <rect x="90" y="340" width="32" height="32"/>
    <rect x="148" y="340" width="32" height="32"/>
    <rect x="206" y="340" width="32" height="32"/>
    <rect x="264" y="340" width="32" height="32"/>
    <rect x="322" y="340" width="32" height="32"/>
    <rect x="380" y="340" width="32" height="32"/>
    <rect x="438" y="340" width="32" height="32"/>
    <rect x="496" y="340" width="32" height="32"/>
    <rect x="554" y="340" width="32" height="32"/>
    <rect x="612" y="340" width="32" height="32"/>
    <rect x="670" y="340" width="32" height="32"/>
    <rect x="728" y="340" width="32" height="32"/>
    <rect x="786" y="340" width="32" height="32"/>
    <rect x="844" y="340" width="32" height="32"/>
    <rect x="32" y="392" width="32" height="32"/>
    <rect x="90" y="392" width="32" height="32"/>
    <rect x="148" y="392" width="32" height="32"/>
    <rect x="206" y="392" width="32" height="32"/>
    <rect x="264" y="392" width="32" height="32"/>
    <rect x="322" y="392" width="32" height="32"/>
    <rect x="380" y="392" width="32" height="32"/>
    <rect x="438" y="392" width="32" height="32"/>
    <rect x="496" y="392" width="32" height="32"/>
    <rect x="554" y="392" width="32" height="32"/>
    <rect x="612" y="392" width="32" height="32"/>
    <rect x="670" y="392" width="32" height="32"/>
    <rect x="728" y="392" width="32" height="32"/>
    <rect x="786" y="392" width="32" height="32"/>
    <rect x="844" y="392" width="32" height="32"/>
    <rect x="32" y="444" width="32" height="32"/>
    <rect x="90" y="444" width="32" height="32"/>
    <rect x="148" y="444" width="32" height="32"/>
    <rect x="206" y="444" width="32" height="32"/>
    <rect x="264" y="444" width="32" height="32"/>
    <rect x="322" y="444" width="32" height="32"/>
    <rect x="380" y="444" width="32" height="32"/>
    <rect x="438" y="444" width="32" height="32"/>
    <rect x="496" y="444" width="32" height="32"/>
    <rect x="554" y="444" width="32" height="32"/>
    <rect x="612" y="444" width="32" height="32"/>
    <rect x="670" y="444" width="32" height="32"/>
    <rect x="728" y="444" width="32" height="32"/>
    <rect x="786" y="444" width="32" height="32"/>
    <rect x="844" y="444" width="32" height="32"/>
  </g>
  <rect x="60" y="60" width="780" height="380" fill="#fff" stroke="#111" stroke-width="2"/>
  <text class="sans heavy" x="96" y="164" font-size="50" fill="#111">Yang Jin Hwan</text>
  <text class="mono" x="100" y="206" font-size="20" letter-spacing="4" fill="#111">CTO</text>
  <text class="mono" x="100" y="330" font-size="22" fill="#111">jin@unionjam.com</text>
  <text class="mono" x="100" y="368" font-size="22" fill="#111">+82 10 2647 0377</text>
  <text class="sans heavy" x="802" y="128" text-anchor="end" font-size="32" fill="#111">UnionJam Inc.</text>
  <g fill="#111">
    <rect x="682" y="250" width="30" height="30"/>
    <rect x="722" y="250" width="30" height="30"/>
    <rect x="762" y="250" width="30" height="30"/>
    <rect x="682" y="290" width="30" height="30"/>
    <rect x="762" y="290" width="30" height="30"/>
    <rect x="682" y="330" width="30" height="30"/>
    <rect x="722" y="330" width="30" height="30"/>
    <rect x="762" y="330" width="30" height="30"/>
  </g>
</svg>
