<svg xmlns="http://www.w3.org/2000/svg" width="90mm" height="50mm" viewBox="0 0 900 500" role="img">
  <title>Concept 07 front</title>
  <defs>
    <style>
    .sans { font-family: Arial, Helvetica, sans-serif; }
    .mono { font-family: "Courier New", Courier, monospace; }
    .heavy { font-weight: 700; }
  </style>
  </defs>
  <rect width="900" height="500" fill="#fff"/>
  <g stroke="#111" stroke-width="1" opacity="0.45">
    <line x1="72" y1="56" x2="72" y2="444"/>
    <line x1="144" y1="56" x2="144" y2="444"/>
    <line x1="216" y1="56" x2="216" y2="444"/>
    <line x1="288" y1="56" x2="288" y2="444"/>
    <line x1="360" y1="56" x2="360" y2="444"/>
    <line x1="432" y1="56" x2="432" y2="444"/>
    <line x1="504" y1="56" x2="504" y2="444"/>
    <line x1="576" y1="56" x2="576" y2="444"/>
    <line x1="648" y1="56" x2="648" y2="444"/>
    <line x1="720" y1="56" x2="720" y2="444"/>
    <line x1="56" y1="72" x2="844" y2="72"/>
    <line x1="56" y1="136" x2="844" y2="136"/>
    <line x1="56" y1="200" x2="844" y2="200"/>
    <line x1="56" y1="264" x2="844" y2="264"/>
    <line x1="56" y1="328" x2="844" y2="328"/>
    <line x1="56" y1="392" x2="844" y2="392"/>
  </g>
  <rect x="56" y="56" width="788" height="388" fill="none" stroke="#111" stroke-width="3"/>
  <text class="mono" x="84" y="104" font-size="16" letter-spacing="3" fill="#111">UnionJam Inc.</text>
  <text class="sans heavy" x="84" y="220" font-size="52" fill="#111">Yang Jin Hwan</text>
  <text class="mono" x="84" y="264" font-size="21" letter-spacing="4" fill="#111">CTO</text>
  <rect x="84" y="310" width="190" height="6" fill="#111"/>
  <text class="mono" x="84" y="362" font-size="21" fill="#111">jin@unionjam.com</text>
  <text class="mono" x="84" y="398" font-size="21" fill="#111">+82 10 2647 0377</text>
  <g fill="#111">
    <rect x="706" y="302" width="26" height="26"/>
    <rect x="742" y="302" width="26" height="26"/>
    <rect x="778" y="302" width="26" height="26"/>
    <rect x="706" y="338" width="26" height="26"/>
    <rect x="778" y="338" width="26" height="26"/>
    <rect x="706" y="374" width="26" height="26"/>
    <rect x="742" y="374" width="26" height="26"/>
    <rect x="778" y="374" width="26" height="26"/>
  </g>
</svg>
