<svg xmlns="http://www.w3.org/2000/svg" width="90mm" height="50mm" viewBox="0 0 900 500" role="img">
  <title>Concept 04 front</title>
  <defs>
    <style>
    .sans { font-family: Arial, Helvetica, sans-serif; }
    .mono { font-family: "Courier New", Courier, monospace; }
    .heavy { font-weight: 700; }
  </style>
  </defs>
  <rect width="900" height="500" fill="#fff"/>
  <g stroke="#111" stroke-width="2">
    <line x1="56" y1="80" x2="844" y2="80"/>
    <line x1="56" y1="420" x2="844" y2="420"/>
    <line x1="118" y1="56" x2="118" y2="444"/>
    <line x1="782" y1="56" x2="782" y2="444"/>
  </g>
  <text class="sans heavy" x="450" y="188" text-anchor="middle" font-size="54" fill="#111">Yang Jin Hwan</text>
  <text class="mono" x="450" y="232" text-anchor="middle" font-size="19" letter-spacing="5" fill="#111">CTO</text>
  <text class="mono" x="450" y="314" text-anchor="middle" font-size="22" fill="#111">jin@unionjam.com</text>
  <text class="mono" x="450" y="352" text-anchor="middle" font-size="22" fill="#111">+82 10 2647 0377</text>
  <text class="sans heavy" x="450" y="124" text-anchor="middle" font-size="24" fill="#111">UnionJam Inc.</text>
  <g fill="#111">
    <rect x="70" y="224" width="14" height="14"/>
    <rect x="91" y="224" width="14" height="14"/>
    <rect x="112" y="224" width="14" height="14"/>
    <rect x="70" y="245" width="14" height="14"/>
    <rect x="112" y="245" width="14" height="14"/>
    <rect x="70" y="266" width="14" height="14"/>
    <rect x="91" y="266" width="14" height="14"/>
    <rect x="112" y="266" width="14" height="14"/>
  </g>
  <g fill="#111">
    <rect x="780" y="224" width="14" height="14"/>
    <rect x="801" y="224" width="14" height="14"/>
    <rect x="822" y="224" width="14" height="14"/>
    <rect x="780" y="245" width="14" height="14"/>
    <rect x="822" y="245" width="14" height="14"/>
    <rect x="780" y="266" width="14" height="14"/>
    <rect x="801" y="266" width="14" height="14"/>
    <rect x="822" y="266" width="14" height="14"/>
  </g>
</svg>
