<svg xmlns="http://www.w3.org/2000/svg" width="90mm" height="50mm" viewBox="0 0 900 500" role="img">
  <title>Concept 06 front</title>
  <defs>
    <style>
    .sans { font-family: Arial, Helvetica, sans-serif; }
    .mono { font-family: "Courier New", Courier, monospace; }
    .heavy { font-weight: 700; }
  </style>
  </defs>
  <rect width="900" height="500" fill="#fff"/>
  <rect x="594" y="0" width="306" height="500" fill="#111"/>
  <rect x="56" y="56" width="462" height="388" fill="none" stroke="#111" stroke-width="2"/>
  <text class="sans heavy" x="82" y="150" font-size="58" fill="#111">Yang</text>
  <text class="sans heavy" x="82" y="218" font-size="58" fill="#111">Jin Hwan</text>
  <text class="mono" x="84" y="270" font-size="21" letter-spacing="4" fill="#111">CTO</text>
  <line x1="82" y1="318" x2="486" y2="318" stroke="#111" stroke-width="2"/>
  <text class="mono" x="82" y="364" font-size="20" fill="#111">jin@unionjam.com</text>
  <text class="mono" x="82" y="398" font-size="20" fill="#111">+82 10 2647 0377</text>
  <g fill="#fff">
    <rect x="670" y="128" width="48" height="48"/>
    <rect x="730" y="128" width="48" height="48"/>
    <rect x="790" y="128" width="48" height="48"/>
    <rect x="670" y="188" width="48" height="48"/>
    <rect x="790" y="188" width="48" height="48"/>
    <rect x="670" y="248" width="48" height="48"/>
    <rect x="730" y="248" width="48" height="48"/>
    <rect x="790" y="248" width="48" height="48"/>
  </g>
  <text class="sans heavy" x="747" y="344" text-anchor="middle" font-size="34" fill="#fff">UNIONJAM</text>
  <text class="mono" x="747" y="380" text-anchor="middle" font-size="18" letter-spacing="4" fill="#fff">INC.</text>
</svg>
