<svg xmlns="http://www.w3.org/2000/svg" width="90mm" height="50mm" viewBox="0 0 900 500" role="img">
  <title>Concept 07 back</title>
  <defs>
    <style>
    .sans { font-family: Arial, Helvetica, sans-serif; }
    .mono { font-family: "Courier New", Courier, monospace; }
    .heavy { font-weight: 700; }
  </style>
  </defs>
  <rect width="900" height="500" fill="#fff"/>
  <g stroke="#111" stroke-width="1" opacity="0.4">
    <line x1="64" y1="64" x2="64" y2="436"/>
    <line x1="140" y1="64" x2="140" y2="436"/>
    <line x1="216" y1="64" x2="216" y2="436"/>
    <line x1="292" y1="64" x2="292" y2="436"/>
    <line x1="368" y1="64" x2="368" y2="436"/>
    <line x1="444" y1="64" x2="444" y2="436"/>
    <line x1="520" y1="64" x2="520" y2="436"/>
    <line x1="596" y1="64" x2="596" y2="436"/>
    <line x1="672" y1="64" x2="672" y2="436"/>
    <line x1="748" y1="64" x2="748" y2="436"/>
    <line x1="824" y1="64" x2="824" y2="436"/>
    <line x1="64" y1="64" x2="836" y2="64"/>
    <line x1="64" y1="126" x2="836" y2="126"/>
    <line x1="64" y1="188" x2="836" y2="188"/>
    <line x1="64" y1="250" x2="836" y2="250"/>
    <line x1="64" y1="312" x2="836" y2="312"/>
    <line x1="64" y1="374" x2="836" y2="374"/>
    <line x1="64" y1="436" x2="836" y2="436"/>
  </g>
  <g fill="#111">
    <rect x="348" y="124" width="58" height="58"/>
    <rect x="420" y="124" width="58" height="58"/>
    <rect x="492" y="124" width="58" height="58"/>
    <rect x="348" y="196" width="58" height="58"/>
    <rect x="492" y="196" width="58" height="58"/>
    <rect x="348" y="268" width="58" height="58"/>
    <rect x="420" y="268" width="58" height="58"/>
    <rect x="492" y="268" width="58" height="58"/>
  </g>
  <text class="mono heavy" x="450" y="366" text-anchor="middle" font-size="54" letter-spacing="4" fill="#111">UNIONJAM</text>
  <text class="mono" x="450" y="408" text-anchor="middle" font-size="20" letter-spacing="7" fill="#111">INC.</text>
</svg>
