<svg xmlns="http://www.w3.org/2000/svg" width="90mm" height="50mm" viewBox="0 0 900 500" role="img">
  <title>Concept 03 front</title>
  <defs>
    <style>
    .sans { font-family: Arial, Helvetica, sans-serif; }
    .mono { font-family: "Courier New", Courier, monospace; }
    .heavy { font-weight: 700; }
  </style>
  </defs>
  <rect width="900" height="500" fill="#fff"/>
  <rect x="44" y="44" width="812" height="412" fill="none" stroke="#111" stroke-width="2"/>
  <rect x="44" y="44" width="812" height="44" fill="#111"/>
  <circle cx="72" cy="66" r="6" fill="#fff"/>
  <circle cx="96" cy="66" r="6" fill="#fff"/>
  <circle cx="120" cy="66" r="6" fill="#fff"/>
  <text class="mono" x="156" y="72" font-size="16" letter-spacing="2" fill="#fff">UNIONJAM.EXE</text>
  <text class="mono heavy" x="78" y="164" font-size="30" fill="#111">&gt; Yang Jin Hwan</text>
  <text class="mono" x="78" y="210" font-size="24" fill="#111">role: CTO</text>
  <text class="mono" x="78" y="260" font-size="24" fill="#111">mail: jin@unionjam.com</text>
  <text class="mono" x="78" y="308" font-size="24" fill="#111">tel : +82 10 2647 0377</text>
  <rect x="78" y="358" width="280" height="24" fill="#111"/>
  <text class="mono" x="78" y="420" font-size="20" letter-spacing="4" fill="#111">UnionJam Inc.</text>
  <g fill="#111">
    <rect x="716" y="340" width="20" height="20"/>
    <rect x="744" y="340" width="20" height="20"/>
    <rect x="772" y="340" width="20" height="20"/>
    <rect x="716" y="368" width="20" height="20"/>
    <rect x="772" y="368" width="20" height="20"/>
    <rect x="716" y="396" width="20" height="20"/>
    <rect x="744" y="396" width="20" height="20"/>
    <rect x="772" y="396" width="20" height="20"/>
  </g>
</svg>
